<?xml version="1.0" standalone="no"?>
<!DOCTYPE svg PUBLIC "-//W3C//DTD SVG 20010904//EN"
 "http://www.w3.org/TR/2001/REC-SVG-20010904/DTD/svg10.dtd">
<svg version="1.0" xmlns="http://www.w3.org/2000/svg"
 width="225.000000pt" height="225.000000pt" viewBox="0 0 225.000000 225.000000"
 preserveAspectRatio="xMidYMid meet">
<metadata>
Created by potrace 1.14, written by Peter Selinger 2001-2017
</metadata>
<g transform="translate(0.000000,225.000000) scale(0.100000,-0.100000)"
fill="#000000" stroke="none">
<path d="M0 1125 l0 -1125 1125 0 1125 0 0 1125 0 1125 -1125 0 -1125 0 0
-1125z m1090 404 c192 -30 310 -102 285 -175 -14 -38 -27 -38 -50 -1 -41 65
-137 105 -323 134 l-103 16 22 23 c24 25 23 25 169 3z m-120 -83 c138 -21 252
-60 295 -100 30 -29 35 -40 35 -78 0 -74 -46 -117 -148 -139 l-49 -10 -49
-135 c-26 -74 -51 -137 -56 -140 -7 -4 -4 99 7 235 6 69 16 50 -104 210 l-26
34 48 -7 c26 -4 47 -3 47 1 0 5 -19 31 -43 58 -61 72 -70 85 -61 85 5 0 52 -7
104 -14z m220 -370 c0 -2 -23 -66 -51 -143 -34 -92 -62 -152 -86 -181 -19 -24
-37 -41 -39 -39 -3 3 89 267 121 350 6 14 55 26 55 13z"/>
<path d="M1040 1364 c0 -3 8 -18 18 -32 10 -15 29 -44 41 -64 l23 -38 -33 7
-33 6 24 -31 c20 -25 30 -30 50 -26 49 11 90 37 96 60 7 28 -5 46 -50 73 -33
20 -136 54 -136 45z"/>
</g>
</svg>
